<svg width="20" height="22" viewBox="0 0 20 22" fill="none" xmlns="http://www.w3.org/2000/svg">
<path d="M8.69501 7.77927V9.18282H7.68701V10.8983H8.69501V15.9977H10.767V10.8983H12.157C12.157 10.8983 12.288 10.0757 12.351 9.17568H10.775V8.00351C10.775 7.82718 11.001 7.59172 11.225 7.59172H12.353V5.80493H10.818C8.64401 5.80493 8.69501 7.52241 8.69501 7.77927Z" fill="white" fill-opacity="0.5"/>
<path d="M10 19.0555C12.1217 19.0555 14.1566 18.1964 15.6569 16.6672C17.1571 15.138 18 13.0639 18 10.9013C18 8.73863 17.1571 6.66458 15.6569 5.13537C14.1566 3.60615 12.1217 2.74705 10 2.74705C7.87827 2.74705 5.84344 3.60615 4.34315 5.13537C2.84285 6.66458 2 8.73863 2 10.9013C2 13.0639 2.84285 15.138 4.34315 16.6672C5.84344 18.1964 7.87827 19.0555 10 19.0555ZM10 21.094C4.477 21.094 0 16.5307 0 10.9013C0 5.2718 4.477 0.708496 10 0.708496C15.523 0.708496 20 5.2718 20 10.9013C20 16.5307 15.523 21.094 10 21.094Z" fill="white" fill-opacity="0.5"/>
</svg>
