<svg width="576" height="509" viewBox="0 0 576 509" fill="none" xmlns="http://www.w3.org/2000/svg">
<path d="M129.888 133.448H16.3877V58.5679H120.717L129.888 133.448Z" fill="#EFEFEF"/>
<path d="M85.8842 91.9551C91.5828 91.9551 96.2024 87.3215 96.2024 81.6058C96.2024 75.89 91.5828 71.2565 85.8842 71.2565C80.1855 71.2565 75.5659 75.89 75.5659 81.6058C75.5659 87.3215 80.1855 91.9551 85.8842 91.9551Z" fill="#3F3D56"/>
<path d="M114.684 37.4089C115.662 36.2955 116.675 35.1875 117.696 34.1155L118.764 35.1382C117.756 36.1961 116.757 37.2893 115.792 38.3877L114.684 37.4089Z" fill="#3F3D56"/>
<path d="M124.232 27.796C126.488 25.788 128.854 23.8514 131.265 22.0402L132.151 23.2249C129.772 25.0123 127.438 26.9228 125.212 28.9037L124.232 27.796ZM138.75 16.889C141.304 15.2838 143.956 13.7663 146.634 12.3781L147.312 13.6939C144.67 15.0631 142.053 16.56 139.534 18.1435L138.75 16.889ZM154.864 8.53837C157.642 7.37963 160.507 6.32119 163.379 5.39143L163.833 6.80095C160.998 7.71778 158.172 8.76255 155.431 9.90559L154.864 8.53837ZM172.461 4.3915L172.123 2.95036C175.061 2.2571 178.059 1.678 181.032 1.22886L181.252 2.69341C178.318 3.13634 175.361 3.70763 172.461 4.3915ZM190.152 1.72339L190.053 0.245923C193.06 0.043935 196.112 -0.0342327 199.124 0.0137211L199.101 1.49464C196.129 1.44697 193.118 1.52413 190.152 1.72336V1.72339ZM208.039 2.01083L208.185 0.5375C211.185 0.836448 214.21 1.26581 217.177 1.81359L216.91 3.27001C213.983 2.72937 210.998 2.30576 208.039 2.0108V2.01083ZM263.371 197.124C265.729 195.313 268.043 193.378 270.247 191.373L271.239 192.471C269.004 194.503 266.659 196.464 264.269 198.3L263.371 197.124ZM225.645 5.26039L226.031 3.83123C228.939 4.62195 231.851 5.54476 234.688 6.57396L234.186 7.96618C231.387 6.95099 228.513 6.04044 225.645 5.26039ZM276.627 185.072C278.657 182.895 280.623 180.605 282.469 178.266L283.626 179.185C281.755 181.556 279.763 183.877 277.706 186.083L276.627 185.072ZM242.476 11.3669L243.09 10.0201C245.831 11.2787 248.553 12.6662 251.182 14.145L250.46 15.4363C247.866 13.9774 245.18 12.6081 242.476 11.3669ZM287.734 171.002C289.384 168.519 290.95 165.938 292.39 163.329L293.682 164.047C292.222 166.69 290.635 169.307 288.963 171.823L287.734 171.002ZM258.084 20.1471L258.909 18.9194C261.407 20.6085 263.867 22.4227 266.22 24.3116L265.297 25.4675C262.976 23.6038 260.549 21.8138 258.084 20.1471ZM296.405 155.3C297.628 152.58 298.753 149.777 299.75 146.967L301.141 147.463C300.131 150.311 298.99 153.152 297.751 155.909L296.405 155.3ZM272.05 31.3618L273.064 30.2858C275.255 32.3633 277.385 34.5562 279.395 36.8039L278.295 37.7923C276.313 35.5749 274.212 33.4115 272.05 31.3618ZM302.401 138.387C303.164 135.499 303.816 132.549 304.338 129.616L305.791 129.876C305.262 132.849 304.602 135.84 303.828 138.766L302.401 138.387ZM283.989 44.7168L285.166 43.8225C286.985 46.2313 288.725 48.7452 290.337 51.2946L289.091 52.0877C287.5 49.5729 285.784 47.0928 283.989 44.7168ZM305.545 120.715C305.823 117.746 305.98 114.728 306.011 111.744L307.488 111.76C307.456 114.784 307.297 117.844 307.015 120.853L305.545 120.715ZM293.568 59.8629L294.876 59.1764C296.273 61.8506 297.575 64.6201 298.749 67.4074L297.389 67.9835C296.231 65.2337 294.946 62.5017 293.568 59.8629ZM305.734 102.765C305.52 99.797 305.178 96.7948 304.719 93.8426L306.178 93.6143C306.643 96.6064 306.99 99.6495 307.207 102.658L305.734 102.765ZM300.53 76.3921L301.932 75.9296C302.872 78.7966 303.708 81.7514 304.413 84.6856L302.977 85.0326C302.282 82.1348 301.456 79.2216 300.53 76.3921Z" fill="#3F3D56"/>
<path d="M252.197 204.649C253.457 203.91 254.719 203.136 255.949 202.346L256.745 203.593C255.499 204.393 254.219 205.179 252.942 205.927L252.197 204.649Z" fill="#3F3D56"/>
<path d="M16.3877 110.033L39.0077 87.3444L59.4815 107.879L98.3266 68.9172L130.192 101.487V133.448H16.3877V110.033Z" fill="#6C63FF"/>
<path d="M386.63 318.518V465.235H574.786V318.518H386.63ZM550.216 357.754H535.643V343.137H550.216V357.754Z" fill="#3F3D56"/>
<path d="M94.0781 260.684H81.939V276.512H94.0781V260.684Z" fill="#3F3D56"/>
<path d="M284.215 365.321L275.631 356.711L264.472 367.903L273.056 376.513L284.215 365.321Z" fill="#3F3D56"/>
<path d="M248.404 88.9334L239.821 80.3239L228.662 91.5162L237.246 100.126L248.404 88.9334Z" fill="#3F3D56"/>
<path d="M400.592 417.898C399.92 419.22 399.213 420.546 398.49 421.838L397.202 421.114C397.916 419.838 398.614 418.53 399.276 417.226L400.592 417.898Z" fill="#3F3D56"/>
<path d="M393.723 429.588C392.035 432.095 390.222 434.561 388.335 436.916L387.184 435.989C389.046 433.665 390.834 431.233 392.499 428.759L393.723 429.588ZM382.361 443.77C380.285 445.961 378.091 448.092 375.841 450.104L374.858 448.998C377.078 447.013 379.243 444.911 381.29 442.75L382.361 443.77ZM368.819 455.873C366.415 457.688 363.903 459.426 361.35 461.043L360.562 459.79C363.081 458.196 365.56 456.48 367.932 454.69L368.819 455.873ZM352.801 464.274L353.485 465.585C350.81 466.989 348.05 468.297 345.281 469.472L344.706 468.109C347.438 466.949 350.161 465.658 352.801 464.274ZM336.325 471.265L336.786 472.672C333.924 473.616 330.987 474.452 328.057 475.156L327.713 473.716C330.603 473.022 333.501 472.197 336.325 471.265ZM318.927 475.443L319.151 476.906C316.171 477.364 313.134 477.702 310.124 477.91L310.023 476.433C312.992 476.227 315.987 475.894 318.927 475.443ZM217.015 300.226C215.179 302.568 213.418 305.019 211.778 307.51L210.546 306.694C212.208 304.169 213.994 301.685 215.854 299.311L217.015 300.226ZM301.068 476.681L301.048 478.161C298.036 478.12 294.986 477.951 291.983 477.661L292.125 476.187C295.087 476.473 298.096 476.64 301.068 476.681ZM207.158 315.203C205.731 317.818 204.395 320.526 203.186 323.251L201.837 322.649C203.062 319.887 204.417 317.142 205.864 314.492L207.158 315.203ZM283.253 474.958L282.991 476.416C280.024 475.88 277.044 475.214 274.132 474.436L274.511 473.005C277.385 473.772 280.326 474.43 283.253 474.958ZM199.884 331.599C198.901 334.415 198.023 337.306 197.273 340.192L195.845 339.818C196.604 336.894 197.494 333.964 198.49 331.11L199.884 331.599ZM265.959 470.341L265.464 471.736C262.626 470.722 259.794 469.578 257.047 468.334L257.654 466.984C260.365 468.212 263.159 469.341 265.959 470.341ZM195.373 348.969C194.862 351.908 194.466 354.905 194.196 357.874L192.726 357.74C192.999 354.73 193.4 351.694 193.918 348.715L195.373 348.969ZM249.654 462.957L248.938 464.252C246.301 462.785 243.695 461.192 241.192 459.515L242.012 458.284C244.481 459.938 247.052 461.51 249.654 462.957ZM193.753 366.846C193.728 369.833 193.828 372.854 194.048 375.824L192.576 375.935C192.352 372.924 192.252 369.862 192.276 366.834L193.753 366.846ZM234.782 452.995L233.863 454.154C231.505 452.274 229.197 450.272 227.004 448.204L228.015 447.126C230.178 449.165 232.455 451.14 234.782 452.995H234.782ZM195.083 384.748C195.549 387.693 196.144 390.655 196.852 393.554L195.419 393.906C194.701 390.968 194.097 387.965 193.625 384.98L195.083 384.748ZM221.752 440.709L220.655 441.7C218.641 439.458 216.693 437.099 214.866 434.692L216.041 433.795C217.843 436.17 219.765 438.496 221.752 440.709ZM199.344 402.182C200.287 405.004 201.361 407.827 202.537 410.572L201.181 411.157C199.989 408.374 198.9 405.513 197.944 402.653L199.344 402.182ZM210.916 426.432L209.672 427.23C208.052 424.687 206.51 422.033 205.101 419.366L206.406 418.672C207.797 421.306 209.318 423.922 210.916 426.432Z" fill="#3F3D56"/>
<path d="M225.976 290.154C224.938 291.183 223.907 292.248 222.912 293.319L221.832 292.31C222.841 291.224 223.886 290.144 224.938 289.101L225.976 290.154Z" fill="#3F3D56"/>
<path d="M546.348 326.141C546.209 325.913 542.925 320.412 541.786 308.991C540.741 298.512 541.413 280.849 550.546 256.21C567.847 209.534 546.558 171.874 546.341 171.498L547.391 170.887C547.446 170.982 552.94 180.584 556.185 195.874C560.473 216.145 558.911 237.222 551.684 256.635C534.412 303.231 547.253 325.289 547.384 325.507L546.348 326.141Z" fill="#3F3D56"/>
<path d="M539.583 168.758C543.941 168.758 547.473 165.214 547.473 160.844C547.473 156.473 543.941 152.929 539.583 152.929C535.225 152.929 531.692 156.473 531.692 160.844C531.692 165.214 535.225 168.758 539.583 168.758Z" fill="#6C63FF"/>
<path d="M564.468 197.979C568.826 197.979 572.358 194.436 572.358 190.065C572.358 185.694 568.826 182.151 564.468 182.151C560.11 182.151 556.577 185.694 556.577 190.065C556.577 194.436 560.11 197.979 564.468 197.979Z" fill="#3F3D56"/>
<path d="M547.473 217.46C551.831 217.46 555.364 213.917 555.364 209.546C555.364 205.175 551.831 201.632 547.473 201.632C543.115 201.632 539.583 205.175 539.583 209.546C539.583 213.917 543.115 217.46 547.473 217.46Z" fill="#6C63FF"/>
<path d="M568.11 233.897C572.467 233.897 576 230.354 576 225.983C576 221.612 572.467 218.069 568.11 218.069C563.752 218.069 560.219 221.612 560.219 225.983C560.219 230.354 563.752 233.897 568.11 233.897Z" fill="#6C63FF"/>
<path d="M541.404 259.466C545.761 259.466 549.294 255.923 549.294 251.552C549.294 247.181 545.761 243.638 541.404 243.638C537.046 243.638 533.513 247.181 533.513 251.552C533.513 255.923 537.046 259.466 541.404 259.466Z" fill="#3F3D56"/>
<path d="M551.115 326.432C551.115 326.432 543.224 306.951 566.896 292.341L551.115 326.432Z" fill="#3F3D56"/>
<path d="M541.411 326.079C541.411 326.079 537.82 305.362 510.026 305.54L541.411 326.079Z" fill="#3F3D56"/>
<path d="M290.418 449.769C288.977 449.769 287.569 449.341 286.371 448.538C285.174 447.735 284.24 446.595 283.689 445.26C283.137 443.925 282.993 442.456 283.274 441.039C283.555 439.622 284.249 438.32 285.268 437.298C286.286 436.277 287.584 435.581 288.997 435.299C290.41 435.017 291.874 435.162 293.205 435.715C294.536 436.268 295.673 437.204 296.474 438.405C297.274 439.607 297.701 441.019 297.701 442.464C297.699 444.401 296.931 446.258 295.565 447.627C294.2 448.997 292.349 449.767 290.418 449.769ZM290.418 436.376C289.217 436.376 288.044 436.733 287.046 437.402C286.048 438.071 285.27 439.022 284.81 440.134C284.351 441.247 284.231 442.471 284.465 443.652C284.699 444.833 285.277 445.917 286.126 446.769C286.975 447.62 288.056 448.2 289.234 448.435C290.411 448.67 291.631 448.549 292.74 448.088C293.849 447.628 294.797 446.847 295.464 445.846C296.131 444.845 296.487 443.668 296.487 442.464C296.485 440.85 295.845 439.303 294.708 438.161C293.57 437.02 292.027 436.378 290.418 436.376Z" fill="#2F2E41"/>
<path d="M370.431 57.8899H358.449V45.8719H370.431V57.8899ZM359.371 56.9655H369.509V46.7964H359.371V56.9655Z" fill="#3F3D56"/>
<path d="M43.6732 393.378L35.5005 384.589L44.2626 376.392L52.4353 385.18L43.6732 393.378ZM36.8032 384.635L43.7186 392.071L51.1327 385.135L44.2173 377.699L36.8032 384.635Z" fill="#2F2E41"/>
<path d="M365.449 313.727H148.271V225.794H328.921L365.449 313.727Z" fill="#EFEFEF"/>
<path d="M366.442 314.393H121.705V206.476H322.06L322.229 206.888L366.442 314.393ZM123.033 313.061H364.457L321.171 207.808H123.033V313.061Z" fill="#3F3D56"/>
<path d="M292.392 239.784H184.135V249.776H292.392V239.784Z" fill="#6C63FF"/>
<path d="M292.392 260.435H184.135V270.427H292.392V260.435Z" fill="#6C63FF"/>
<path d="M292.392 281.085H184.135V291.078H292.392V281.085Z" fill="#6C63FF"/>
<path d="M181.741 148.059H0V37.2607H141.237L141.383 37.66L181.741 148.059ZM1.21391 146.842H180.004L140.39 38.4783H1.21391V146.842Z" fill="#3F3D56"/>
<path d="M130.495 134.057H15.7808V48.2188H130.495V134.057ZM16.9947 132.84H129.281V49.4364H16.9947V132.84Z" fill="#3F3D56"/>
<path d="M180.872 158.408C186.906 158.408 191.798 153.502 191.798 147.45C191.798 141.398 186.906 136.492 180.872 136.492C174.839 136.492 169.947 141.398 169.947 147.45C169.947 153.502 174.839 158.408 180.872 158.408Z" fill="#6C63FF"/>
<path d="M364.173 325.215C370.207 325.215 375.098 320.309 375.098 314.257C375.098 308.205 370.207 303.299 364.173 303.299C358.139 303.299 353.248 308.205 353.248 314.257C353.248 320.309 358.139 325.215 364.173 325.215Z" fill="#6C63FF"/>
<path d="M442.518 164.39C452.671 164.39 460.902 156.134 460.902 145.951C460.902 135.767 452.671 127.512 442.518 127.512C432.365 127.512 424.135 135.767 424.135 145.951C424.135 156.134 432.365 164.39 442.518 164.39Z" fill="#A0616A"/>
<path d="M429.879 154.786C429.879 154.786 436.007 168.615 427.581 173.993C419.156 179.371 441.369 201.652 441.369 201.652L465.881 175.53C465.881 175.53 452.859 167.079 455.157 153.249L429.879 154.786Z" fill="#A0616A"/>
<path d="M387.75 213.176L382.388 243.908C382.388 243.908 373.196 262.347 373.196 278.481C373.196 294.615 371.664 297.689 371.664 297.689C371.664 297.689 356.345 328.42 367.069 329.957C377.792 331.494 382.388 298.457 382.388 298.457C382.388 298.457 396.942 262.347 396.942 250.823L406.9 225.469L387.75 213.176Z" fill="#A0616A"/>
<path d="M498.818 214.713L500.35 241.603C500.35 241.603 505.712 255.432 501.882 280.018L498.818 303.835C498.818 303.835 505.712 330.725 498.818 331.493C491.924 332.262 483.498 314.591 488.094 304.603V296.152C488.094 296.152 483.498 260.042 485.03 253.896L479.668 224.701L498.818 214.713Z" fill="#A0616A"/>
<path d="M399.24 427.53L406.9 447.506L423.751 444.432L413.028 422.921L399.24 427.53Z" fill="#A0616A"/>
<path d="M472.009 443.664L469.711 472.859H488.86L488.094 447.506L472.009 443.664Z" fill="#A0616A"/>
<path d="M411.496 268.493L409.198 280.018C409.198 280.018 404.602 283.859 404.602 287.701C404.602 291.542 403.07 293.079 403.07 293.079C403.07 293.079 402.304 293.079 401.538 294.615C401.142 295.455 400.626 296.231 400.006 296.92C400.006 296.92 354.813 343.018 364.771 366.067C374.728 389.115 393.878 435.981 393.878 435.981C393.878 435.981 416.092 429.067 416.092 423.689L394.644 362.993L437.539 318.432L472.009 365.298C472.009 365.298 465.115 447.506 469.711 448.274C474.307 449.042 499.584 454.42 500.35 452.115C501.116 449.811 504.946 347.628 503.414 343.786C501.882 339.945 479.669 293.847 479.669 293.847C479.669 293.847 483.498 289.237 481.2 287.701C478.903 286.164 475.073 271.567 475.073 271.567C475.073 271.567 415.326 261.579 411.496 268.493Z" fill="#2F2E41"/>
<path d="M444.433 182.445L428.993 172.894C428.993 172.894 419.922 173.225 417.624 175.53C415.326 177.835 401.538 183.981 401.538 183.981C401.538 183.981 404.602 276.176 410.73 273.103C416.858 270.03 412.262 267.725 416.858 270.03C421.454 272.335 475.839 273.103 476.605 273.103C477.37 273.103 478.136 271.567 478.136 271.567L481.2 224.701L491.158 185.518L461.677 171.912L444.433 182.445Z" fill="#D0CDE1"/>
<path d="M407.666 183.213H401.538C401.538 183.213 393.112 185.518 389.282 197.81C385.452 210.103 383.92 215.481 385.452 217.018C386.984 218.554 407.666 230.079 407.666 230.079V183.213Z" fill="#D0CDE1"/>
<path d="M480.434 184.75L491.158 185.518C491.158 185.518 504.946 217.786 501.116 219.323C497.286 220.859 475.073 232.384 475.073 230.079C475.073 227.774 480.434 184.75 480.434 184.75Z" fill="#D0CDE1"/>
<path d="M408.432 437.518L402.186 435.213L387.75 454.42C387.75 454.42 360.941 473.628 385.452 472.859C385.452 472.859 404.602 469.786 406.134 464.408C406.134 464.408 428.348 458.262 428.348 454.42C428.348 450.579 423.243 440.338 421.582 440.08C419.922 439.823 413.028 442.896 408.432 437.518Z" fill="#2F2E41"/>
<path d="M488.86 464.408C488.86 464.408 470.239 464.105 470.358 464.641C470.477 465.176 465.115 477.469 465.881 482.079C466.647 486.689 473.541 492.835 472.009 495.908C470.477 498.981 476.605 508.201 488.86 508.969C501.116 509.737 499.584 495.908 499.584 495.908L493.456 481.311L488.86 464.408Z" fill="#2F2E41"/>
<path d="M431.247 124.608C430.327 125.394 429.367 126.13 428.371 126.815C427.115 127.861 425.955 129.016 424.904 130.269L423.719 131.6C422.71 132.733 421.64 134.026 421.682 135.544C421.698 136.107 421.871 136.654 421.938 137.214C422.207 139.433 420.854 141.872 421.968 143.809C422.289 144.369 422.787 144.807 423.142 145.346C423.594 146.038 423.794 146.864 423.708 147.687C424.905 147.736 425.886 146.66 426.261 145.52C426.637 144.379 426.586 143.147 426.768 141.96C426.951 140.774 427.465 139.517 428.54 138.988C430.834 137.861 433.468 140.792 435.917 140.062C437.627 139.552 438.529 137.426 440.277 137.069C441.528 136.814 442.732 137.56 443.895 138.088C445.058 138.617 446.626 138.861 447.448 137.882C447.993 137.233 448.051 136.194 448.773 135.753C449.638 135.225 450.722 135.96 451.377 136.735C452.033 137.51 452.756 138.458 453.769 138.43C455.113 138.392 456.142 136.598 457.417 137.023C458.856 137.504 458.194 139.814 459.067 141.058C459.806 142.11 461.352 142.048 462.622 141.874C462.837 141.896 463.053 141.863 463.251 141.778C463.449 141.693 463.622 141.559 463.755 141.389C463.887 141.218 463.974 141.017 464.008 140.804C464.042 140.59 464.021 140.372 463.948 140.169L463.417 133.109C463.415 132.623 463.309 132.143 463.106 131.701C462.736 131.029 461.971 130.689 461.451 130.127C460.357 128.946 460.409 126.874 459.049 126.015C458.342 125.569 457.418 125.582 456.717 125.128C455.818 124.546 455.528 123.38 454.898 122.512C453.997 121.271 452.422 120.695 450.9 120.537C449.377 120.38 447.841 120.57 446.311 120.52C443.201 120.418 440.09 119.54 436.965 120.054C434.238 120.503 433.093 122.823 431.247 124.608Z" fill="#2F2E41"/>
</svg>
