<svg width="20" height="22" viewBox="0 0 20 22" fill="none" xmlns="http://www.w3.org/2000/svg">
<path d="M9.99731 5.69068C7.15795 5.69068 4.86644 8.0264 4.86644 10.9206C4.86644 13.8147 7.15795 16.1504 9.99731 16.1504C12.8367 16.1504 15.1282 13.8147 15.1282 10.9206C15.1282 8.0264 12.8367 5.69068 9.99731 5.69068ZM9.99731 14.3196C8.16111 14.3196 6.66262 12.7922 6.66262 10.9206C6.66262 9.04892 8.16111 7.52152 9.99731 7.52152C11.8335 7.52152 13.332 9.04892 13.332 10.9206C13.332 12.7922 11.8335 14.3196 9.99731 14.3196ZM15.3383 4.25762C14.6754 4.25762 14.14 4.80331 14.14 5.47903C14.14 6.15476 14.6754 6.70044 15.3383 6.70044C16.0013 6.70044 16.5366 6.15731 16.5366 5.47903C16.5368 5.31858 16.5059 5.15966 16.4458 5.01138C16.3856 4.8631 16.2974 4.72838 16.1861 4.61492C16.0748 4.50146 15.9426 4.4115 15.7971 4.35019C15.6516 4.28888 15.4957 4.25742 15.3383 4.25762ZM19.9989 10.9206C19.9989 9.513 20.0114 8.1182 19.9338 6.71319C19.8563 5.08125 19.4911 3.6329 18.3203 2.43953C17.147 1.24362 15.7286 0.873887 14.1275 0.794839C12.7466 0.715792 11.3782 0.728542 9.99981 0.728542C8.61891 0.728542 7.25051 0.715792 5.8721 0.794839C4.27105 0.873887 2.85012 1.24617 1.67935 2.43953C0.506076 3.63545 0.143338 5.08125 0.0657868 6.71319C-0.0117642 8.12075 0.000744099 9.51555 0.000744099 10.9206C0.000744099 12.3256 -0.0117642 13.7229 0.0657868 15.1279C0.143338 16.7599 0.508578 18.2082 1.67935 19.4016C2.85262 20.5975 4.27105 20.9672 5.8721 21.0463C7.25301 21.1253 8.62141 21.1126 9.99981 21.1126C11.3807 21.1126 12.7491 21.1253 14.1275 21.0463C15.7286 20.9672 17.1495 20.5949 18.3203 19.4016C19.4936 18.2057 19.8563 16.7599 19.9338 15.1279C20.0139 13.7229 19.9989 12.3281 19.9989 10.9206ZM17.7974 16.9333C17.6148 17.3973 17.3947 17.7441 17.0419 18.1011C16.6892 18.4607 16.3515 18.685 15.8962 18.8712C14.5803 19.4041 11.4558 19.2843 9.99731 19.2843C8.53885 19.2843 5.4118 19.4041 4.09593 18.8737C3.64064 18.6876 3.30041 18.4632 2.95018 18.1037C2.59745 17.7441 2.37731 17.3999 2.19469 16.9358C1.67434 15.592 1.79192 12.4072 1.79192 10.9206C1.79192 9.43395 1.67434 6.24656 2.19469 4.9053C2.37731 4.44122 2.59745 4.09443 2.95018 3.73744C3.30291 3.38045 3.64064 3.15351 4.09593 2.96737C5.4118 2.43699 8.53885 2.55683 9.99731 2.55683C11.4558 2.55683 14.5828 2.43699 15.8987 2.96737C16.354 3.15351 16.6942 3.3779 17.0444 3.73744C17.3972 4.09698 17.6173 4.44122 17.7999 4.9053C18.3203 6.24656 18.2027 9.43395 18.2027 10.9206C18.2027 12.4072 18.3203 15.592 17.7974 16.9333Z" fill="white" fill-opacity="0.5"/>
</svg>
