<svg width="743" height="617" viewBox="0 0 743 617" fill="none" xmlns="http://www.w3.org/2000/svg">
<path d="M159.645 427C166.732 427 173.289 423.25 176.883 417.142L219.155 345.298C224.48 336.248 221.899 324.62 213.245 318.673L117.462 252.847C107.903 246.278 94.7782 249.191 88.8964 259.188L42.6998 337.702C37.3747 346.752 39.9557 358.38 48.6098 364.327L134.688 423.483C138.021 425.774 141.97 427 146.015 427H159.645Z" fill="#D0CDE1"/>
<path d="M252.602 447.5C252.602 453.023 248.124 457.5 242.602 457.5H120.108C114.586 457.5 110.108 453.023 110.108 447.5V436.5C110.108 430.977 114.586 426.5 120.108 426.5H242.602C248.124 426.5 252.602 430.977 252.602 436.5V447.5ZM111.959 445.5C111.959 451.023 116.436 455.5 121.959 455.5H240.751C246.274 455.5 250.751 451.023 250.751 445.5V438.5C250.751 432.977 246.274 428.5 240.751 428.5H121.959C116.436 428.5 111.959 432.977 111.959 438.5V445.5Z" fill="#3F3D56"/>
<path d="M235.021 452C240.131 452 244.274 447.523 244.274 442C244.274 436.477 240.131 432 235.021 432C229.911 432 225.768 436.477 225.768 442C225.768 447.523 229.911 452 235.021 452Z" fill="#6C63FF"/>
<path d="M209.113 452C214.224 452 218.366 447.523 218.366 442C218.366 436.477 214.224 432 209.113 432C204.003 432 199.861 436.477 199.861 442C199.861 447.523 204.003 452 209.113 452Z" fill="#6C63FF"/>
<path d="M183.205 452C188.316 452 192.458 447.523 192.458 442C192.458 436.477 188.316 432 183.205 432C178.095 432 173.953 436.477 173.953 442C173.953 447.523 178.095 452 183.205 452Z" fill="#6C63FF"/>
<path d="M157.298 452C162.408 452 166.551 447.523 166.551 442C166.551 436.477 162.408 432 157.298 432C152.188 432 148.045 436.477 148.045 442C148.045 447.523 152.188 452 157.298 452Z" fill="#6C63FF"/>
<path d="M131.39 452C136.5 452 140.643 447.523 140.643 442C140.643 436.477 136.5 432 131.39 432C126.28 432 122.137 436.477 122.137 442C122.137 447.523 126.28 452 131.39 452Z" fill="#6C63FF"/>
<path d="M426.928 113C424.166 113 421.928 110.761 421.928 108V42C421.928 39.2386 424.166 37 426.928 37H452.088C454.85 37 457.088 34.7614 457.088 32V5C457.088 2.23858 454.85 0 452.088 0H289.986C287.225 0 284.986 2.23858 284.986 5V181C284.986 183.761 287.225 186 289.986 186H427.106C429.867 186 432.106 183.761 432.106 181V167.814C432.106 164.424 432.724 161.068 433.924 157.936C435.124 154.804 436.884 151.958 439.102 149.561C441.32 147.164 443.953 145.262 446.851 143.965C449.749 142.668 452.855 142 455.992 142V142C456.597 142 457.088 141.509 457.088 140.903V118C457.088 115.239 454.85 113 452.088 113H426.928Z" fill="#D0CDE1"/>
<path d="M612.536 480H497.801V506H612.536V480Z" fill="#6C63FF"/>
<path d="M637.518 352H469.117V376H637.518V352Z" fill="#F0F0F0"/>
<path d="M714.316 615H0V617H714.316V615Z" fill="#3F3D56"/>
<path d="M666.374 617H455.992C449.414 616.992 443.107 614.164 438.456 609.137C433.805 604.11 431.188 597.295 431.181 590.186V167.814C431.188 160.705 433.805 153.89 438.456 148.863C443.107 143.836 449.414 141.008 455.992 141H666.374C672.952 141.008 679.258 143.836 683.909 148.863C688.561 153.89 691.177 160.705 691.184 167.814V590.186C691.177 597.295 688.56 604.11 683.909 609.137C679.258 614.164 672.952 616.992 666.374 617V617ZM455.992 143C449.904 143.007 444.068 145.624 439.764 150.276C435.459 154.928 433.038 161.236 433.031 167.814V590.186C433.038 596.764 435.459 603.072 439.764 607.724C444.068 612.376 449.904 614.993 455.992 615H666.374C672.461 614.993 678.297 612.376 682.601 607.724C686.906 603.072 689.327 596.764 689.334 590.186V167.814C689.327 161.236 686.906 154.928 682.601 150.276C678.297 145.624 672.461 143.007 666.374 143H455.992Z" fill="#3F3D56"/>
<path d="M536.2 161C535.102 161 534.028 160.648 533.116 159.989C532.203 159.33 531.491 158.392 531.071 157.296C530.651 156.2 530.541 154.993 530.755 153.829C530.969 152.666 531.498 151.596 532.274 150.757C533.051 149.918 534.04 149.347 535.117 149.115C536.194 148.884 537.31 149.003 538.324 149.457C539.339 149.911 540.206 150.68 540.816 151.667C541.426 152.653 541.752 153.813 541.752 155C541.75 156.591 541.165 158.116 540.124 159.241C539.083 160.366 537.672 160.998 536.2 161V161ZM536.2 151C535.468 151 534.752 151.235 534.144 151.674C533.535 152.114 533.061 152.738 532.781 153.469C532.5 154.2 532.427 155.004 532.57 155.78C532.713 156.556 533.065 157.269 533.583 157.828C534.1 158.388 534.76 158.769 535.478 158.923C536.196 159.077 536.94 158.998 537.616 158.696C538.293 158.393 538.871 157.88 539.277 157.222C539.684 156.564 539.901 155.791 539.901 155C539.9 153.939 539.51 152.923 538.816 152.173C538.122 151.423 537.181 151.001 536.2 151V151Z" fill="#3F3D56"/>
<path d="M590.791 154H550.079V156H590.791V154Z" fill="#3F3D56"/>
<path d="M674.529 170V250C654.898 249.999 636.07 241.57 622.188 226.568C608.307 211.565 600.508 191.217 600.507 170H674.529Z" fill="#615AD5"/>
<path d="M675.455 590H446.91V169H675.455V590ZM448.761 588H673.604V171H448.761V588Z" fill="#3F3D56"/>
<path opacity="0.1" d="M620.863 245C634.66 245 645.845 232.912 645.845 218C645.845 203.088 634.66 191 620.863 191C607.065 191 595.88 203.088 595.88 218C595.88 232.912 607.065 245 620.863 245Z" fill="black"/>
<path d="M617.162 248C630.959 248 642.144 235.912 642.144 221C642.144 206.088 630.959 194 617.162 194C603.364 194 592.179 206.088 592.179 221C592.179 235.912 603.364 248 617.162 248Z" fill="#615AD5"/>
<path d="M492.249 186H457.088V200H492.249V186Z" fill="#3F3D56"/>
<path d="M511.68 319H476.519V333H511.68V319Z" fill="#3F3D56"/>
<path d="M646.771 371H476.519V345H646.771V371ZM478.37 369H644.92V347H478.37V369Z" fill="#3F3D56"/>
<path d="M637.518 428H469.117V452H637.518V428Z" fill="#F0F0F0"/>
<path d="M511.68 395H476.519V409H511.68V395Z" fill="#3F3D56"/>
<path d="M646.771 447H476.519V421H646.771V447ZM478.37 445H644.92V423H478.37V445Z" fill="#3F3D56"/>
<path d="M619.938 500H503.353V472H619.938V500ZM505.203 498H618.087V474H505.203V498Z" fill="#3F3D56"/>
<path d="M642.144 361C642.144 363.059 641.556 365.067 640.461 366.751C639.365 368.435 637.815 369.713 636.023 370.41C634.23 371.106 632.283 371.188 630.445 370.644C628.608 370.1 626.971 368.957 625.758 367.37L625.748 367.36C624.864 366.2 624.233 364.84 623.901 363.381C623.57 361.921 623.548 360.4 623.836 358.929C624.123 357.459 624.714 356.078 625.564 354.888C626.414 353.699 627.501 352.732 628.744 352.059C629.987 351.386 631.355 351.024 632.745 351.001C634.136 350.978 635.513 351.294 636.775 351.925C638.037 352.557 639.151 353.488 640.034 354.648C640.917 355.809 641.547 357.17 641.876 358.63C641.876 358.631 641.876 358.633 641.877 358.634C641.877 358.635 641.878 358.636 641.879 358.637C641.88 358.638 641.881 358.639 641.882 358.639C641.883 358.64 641.884 358.64 641.885 358.64C642.056 359.413 642.143 360.205 642.144 361V361Z" fill="#6C63FF"/>
<path opacity="0.1" d="M642.144 361C642.144 363.059 641.556 365.067 640.46 366.751C639.365 368.435 637.815 369.713 636.023 370.41C634.23 371.107 632.282 371.189 630.445 370.644C628.608 370.1 626.971 368.957 625.758 367.37L625.748 367.36C625.577 366.587 625.49 365.795 625.489 365C625.489 362.941 626.077 360.933 627.173 359.249C628.269 357.565 629.819 356.287 631.611 355.59C633.403 354.894 635.351 354.812 637.188 355.356C639.026 355.9 640.663 357.043 641.876 358.63C641.876 358.631 641.876 358.633 641.877 358.634C641.877 358.635 641.878 358.636 641.879 358.637C641.88 358.638 641.881 358.639 641.882 358.639C641.883 358.64 641.884 358.64 641.885 358.64C642.056 359.413 642.143 360.205 642.144 361V361Z" fill="black"/>
<path d="M636.593 377C641.703 377 645.845 372.523 645.845 367C645.845 361.477 641.703 357 636.593 357C631.482 357 627.34 361.477 627.34 367C627.34 372.523 631.482 377 636.593 377Z" fill="#6C63FF"/>
<path d="M642.144 437C642.144 439.059 641.556 441.067 640.461 442.751C639.365 444.435 637.815 445.713 636.023 446.41C634.23 447.107 632.283 447.189 630.445 446.644C628.608 446.1 626.971 444.957 625.758 443.37L625.748 443.36C624.864 442.2 624.233 440.84 623.901 439.381C623.57 437.921 623.548 436.4 623.836 434.93C624.123 433.459 624.714 432.078 625.564 430.889C626.414 429.699 627.501 428.732 628.744 428.059C629.987 427.386 631.355 427.024 632.745 427.001C634.136 426.978 635.513 427.294 636.775 427.925C638.037 428.557 639.151 429.488 640.034 430.648C640.917 431.809 641.547 433.17 641.876 434.63C641.876 434.631 641.876 434.633 641.877 434.634C641.877 434.635 641.878 434.636 641.879 434.637C641.88 434.638 641.881 434.639 641.882 434.639C641.883 434.64 641.884 434.64 641.885 434.64C642.056 435.413 642.143 436.205 642.144 437V437Z" fill="#6C63FF"/>
<path opacity="0.1" d="M642.144 437C642.144 439.059 641.556 441.067 640.46 442.751C639.365 444.435 637.815 445.713 636.023 446.41C634.23 447.106 632.282 447.188 630.445 446.644C628.608 446.1 626.971 444.957 625.758 443.37L625.748 443.36C625.577 442.587 625.49 441.795 625.489 441C625.489 438.941 626.077 436.933 627.173 435.249C628.269 433.565 629.819 432.287 631.611 431.59C633.403 430.893 635.351 430.811 637.188 431.356C639.026 431.9 640.663 433.043 641.876 434.63C641.876 434.631 641.876 434.633 641.877 434.634C641.877 434.635 641.878 434.636 641.879 434.637C641.88 434.638 641.881 434.639 641.882 434.639C641.883 434.64 641.884 434.64 641.885 434.64C642.056 435.413 642.143 436.205 642.144 437V437Z" fill="black"/>
<path d="M636.593 453C641.703 453 645.845 448.523 645.845 443C645.845 437.477 641.703 433 636.593 433C631.482 433 627.34 437.477 627.34 443C627.34 448.523 631.482 453 636.593 453Z" fill="#6C63FF"/>
<path d="M473.146 48H441.031C436.613 48 433.031 51.5817 433.031 56V92C433.031 96.4183 436.613 100 441.031 100H473.146C477.564 100 481.146 96.4183 481.146 92V56C481.146 51.5817 477.564 48 473.146 48Z" fill="#F0F0F0"/>
<path d="M620.863 86C618.667 86 616.52 85.2962 614.694 83.9776C612.868 82.6591 611.445 80.7849 610.605 78.5922C609.765 76.3995 609.545 73.9867 609.973 71.6589C610.402 69.3312 611.459 67.193 613.012 65.5147C614.565 63.8365 616.543 62.6936 618.697 62.2306C620.851 61.7676 623.083 62.0052 625.112 62.9135C627.141 63.8217 628.875 65.3598 630.095 67.3332C631.315 69.3066 631.966 71.6266 631.966 74C631.963 77.1815 630.792 80.2317 628.711 82.4814C626.629 84.731 623.807 85.9964 620.863 86V86ZM620.863 64C619.033 64 617.244 64.5865 615.723 65.6853C614.201 66.7841 613.015 68.3459 612.315 70.1732C611.614 72.0004 611.431 74.0111 611.788 75.9509C612.145 77.8907 613.026 79.6726 614.32 81.0711C615.614 82.4696 617.263 83.422 619.058 83.8078C620.853 84.1937 622.713 83.9957 624.404 83.2388C626.095 82.4819 627.54 81.2002 628.557 79.5557C629.573 77.9112 630.116 75.9778 630.116 74C630.113 71.3488 629.137 68.807 627.403 66.9323C625.668 65.0576 623.316 64.003 620.863 64V64Z" fill="#3F3D56"/>
<path d="M376.589 248C376.589 250.761 374.35 253 371.589 253H357.532C354.77 253 352.532 250.761 352.532 248V232C352.532 229.239 354.77 227 357.532 227H371.589C374.35 227 376.589 229.239 376.589 232V248ZM354.382 246C354.382 248.761 356.621 251 359.382 251H369.738C372.5 251 374.738 248.761 374.738 246V234C374.738 231.239 372.5 229 369.738 229H359.382C356.621 229 354.382 231.239 354.382 234V246Z" fill="#3F3D56"/>
<path d="M268.334 272.666L272.462 275.07L286.51 283.252L309.189 296.458L322.405 269.956C323.65 267.466 324.428 264.735 324.695 261.92C324.962 259.104 324.713 256.26 323.961 253.548C323.21 250.837 321.971 248.313 320.316 246.12C318.66 243.927 316.621 242.108 314.315 240.767C309.386 237.891 303.739 236.779 298.188 237.593C292.637 238.407 287.469 241.105 283.427 245.297L283.42 245.304C281.432 247.368 279.754 249.755 278.447 252.379L268.334 272.666Z" fill="#2F2E41"/>
<path d="M330.233 542.937L327.462 575.876L317.071 577.373L310.145 539.942L330.233 542.937Z" fill="#FFB8B8"/>
<path d="M314.301 577.373C314.301 577.373 327.462 569.887 330.233 575.876C330.233 575.876 328.155 593.843 336.467 596.089C344.779 598.335 348.243 614.056 336.467 615.554C324.691 617.051 317.071 612.559 312.915 612.559C308.759 612.559 312.915 596.838 312.915 596.838L314.301 577.373Z" fill="#2F2E41"/>
<path d="M246.417 542.937L249.188 575.876L259.578 577.373L266.505 539.942L246.417 542.937Z" fill="#FFB8B8"/>
<path d="M262.349 577.373C262.349 577.373 249.188 569.887 246.417 575.876C246.417 575.876 248.495 593.843 240.183 596.089C231.87 598.335 228.407 614.056 240.183 615.554C251.958 617.051 259.578 612.559 263.734 612.559C267.89 612.559 263.734 596.838 263.734 596.838L262.349 577.373Z" fill="#2F2E41"/>
<path d="M303.218 278.67C313.164 278.67 321.228 269.956 321.228 259.206C321.228 248.456 313.164 239.742 303.218 239.742C293.271 239.742 285.208 248.456 285.208 259.206C285.208 269.956 293.271 278.67 303.218 278.67Z" fill="#FFB8B8"/>
<path d="M245.724 297.386L260.271 322.091L277.588 320.594L305.988 322.84C305.988 322.84 308.669 317.045 310.858 311.408C312.056 308.593 312.978 305.65 313.608 302.627C314.301 297.386 304.603 292.146 304.603 292.146C304.603 292.146 304.222 292.071 303.585 291.906C302.74 291.689 301.437 291.33 300.01 290.806C296.789 289.623 292.917 287.617 292.134 284.66C290.749 279.419 301.139 271.933 301.139 271.933L288.671 259.206C288.671 259.206 277.595 275.833 264.143 279.621C263.363 279.844 262.572 280.019 261.774 280.145C261.732 280.153 261.698 280.16 261.656 280.168C247.109 282.414 245.724 297.386 245.724 297.386Z" fill="#FFB8B8"/>
<path d="M253.344 290.649L245.724 297.386C245.724 297.386 239.49 329.577 241.568 338.561C243.646 347.544 240.875 355.779 240.875 357.277C240.875 358.774 234.641 414.921 234.641 414.921C234.641 414.921 222.173 444.866 235.334 441.872C248.495 438.877 243.646 408.932 243.646 408.932L259.578 356.528V312.359L253.344 290.649Z" fill="#FFB8B8"/>
<path d="M308.066 296.638L313.608 301.129L316.379 364.014L337.159 417.915C337.159 417.915 352.399 444.117 342.701 444.866C333.003 445.615 326.769 417.915 326.769 417.915L308.066 366.26L305.296 316.102L308.066 296.638Z" fill="#FFB8B8"/>
<path d="M273.432 301.129C273.432 301.129 287.286 311.61 309.452 307.867C309.452 307.867 315.686 321.342 312.223 328.829C308.759 336.315 316.379 354.282 317.764 356.528C319.149 358.774 335.081 405.189 340.623 455.347C346.165 505.505 361.404 539.942 348.243 544.434C335.081 548.925 308.066 554.166 305.296 549.674C302.525 545.182 298.369 433.637 298.369 433.637L290.749 476.308C290.749 476.308 301.14 548.926 293.52 550.423C285.9 551.92 238.105 547.428 239.49 538.445C240.875 529.461 254.729 482.298 254.729 482.298C254.729 482.298 254.037 387.97 267.89 370.003C267.89 370.003 273.432 360.271 265.812 347.544C258.193 334.818 258.885 314.605 258.885 314.605C258.885 314.605 264.427 314.605 273.432 301.129Z" fill="#2F2E41"/>
<path d="M261.774 280.145L273.432 307.867L276.202 306.37L264.142 279.621L261.774 280.145Z" fill="#2F2E41"/>
<path d="M300.01 290.806L308.759 311.61L310.858 311.408L310.145 307.867L303.585 291.906C302.74 291.689 301.437 291.33 300.01 290.806Z" fill="#2F2E41"/>
<path d="M272.462 275.07C273.128 277.385 274.412 279.438 276.152 280.969C277.893 282.5 280.012 283.442 282.246 283.677C284.479 283.912 286.727 283.429 288.708 282.29C290.689 281.15 292.315 279.404 293.381 277.271C284.619 264.888 292.135 257.11 306.369 251.226C307.442 249.075 307.898 246.628 307.679 244.197C307.461 241.765 306.578 239.459 305.143 237.571C301.22 237.028 297.234 237.441 293.476 238.777C289.719 240.114 286.286 242.341 283.427 245.297L283.42 245.304L273.307 265.577C272.587 267.018 272.141 268.6 271.996 270.231C271.851 271.861 272.009 273.506 272.462 275.07V275.07Z" fill="#2F2E41"/>
<path d="M292.481 265.944C293.82 265.944 294.905 263.933 294.905 261.452C294.905 258.971 293.82 256.96 292.481 256.96C291.142 256.96 290.056 258.971 290.056 261.452C290.056 263.933 291.142 265.944 292.481 265.944Z" fill="#FFB8B8"/>
<path d="M299.706 254.123L320.528 264.319L324.345 255.216C323.687 251.889 322.31 248.777 320.327 246.135L305.995 239.12L299.706 254.123Z" fill="#2F2E41"/>
<path d="M349.756 455C354.866 455 359.009 450.523 359.009 445C359.009 439.477 354.866 435 349.756 435C344.646 435 340.503 439.477 340.503 445C340.503 450.523 344.646 455 349.756 455Z" fill="#6C63FF"/>
<path d="M52.7006 514.447C56.0403 514.447 58.7477 511.521 58.7477 507.911C58.7477 504.302 56.0403 501.376 52.7006 501.376C49.3609 501.376 46.6536 504.302 46.6536 507.911C46.6536 511.521 49.3609 514.447 52.7006 514.447Z" fill="#FF6584"/>
<path d="M83.2522 541.973H81.4016V616.384H83.2522V541.973Z" fill="#3F3D56"/>
<path d="M82.3269 552.495C87.7042 552.495 92.0635 547.784 92.0635 541.972C92.0635 536.161 87.7042 531.45 82.3269 531.45C76.9495 531.45 72.5903 536.161 72.5903 541.972C72.5903 547.784 76.9495 552.495 82.3269 552.495Z" fill="#3F3D56"/>
<path d="M82.3273 587.834C82.3273 587.834 80.9363 555.502 52.4221 559.26Z" fill="#3F3D56"/>
</svg>
