<svg width="235" height="82" viewBox="0 0 235 82" fill="none" xmlns="http://www.w3.org/2000/svg">
<path d="M37.6787 29.1572C33.388 5.76959 69.0925 30.6959 49.1716 12.232C42.2758 7.35954 30.3233 3.9232 37.6787 29.1572ZM37.6787 29.1572C39.4665 34.5425 42.5823 48.6982 40.7435 62.2384C38.9557 67.1109 33.8477 77.4712 27.7182 79.933C36.6571 80.4459 54.9946 78.2405 56.8335 65.3158C58.6723 52.391 44.8298 35.8248 37.6787 29.1572ZM20.0563 3C21.3333 15.5657 21.129 42.082 10.0958 47.6212C-3.69561 54.5451 1.66773 73.0091 14.693 78.3944C25.1132 82.7026 35.7858 71.4704 37.6787 60.6998C39.9773 47.6212 32.3154 9.77011 20.0563 3Z" stroke="white" stroke-width="3"/>
<path d="M80.248 40.5703V44.207H82.7773V47.1055H80.248V54.4883C80.248 55.0352 80.3529 55.4271 80.5625 55.6641C80.7721 55.901 81.1732 56.0195 81.7656 56.0195C82.2031 56.0195 82.5905 55.9876 82.9277 55.9238V58.918C82.153 59.1549 81.3555 59.2734 80.5352 59.2734C77.7643 59.2734 76.3516 57.8743 76.2969 55.0762V47.1055H74.1367V44.207H76.2969V40.5703H80.248ZM91.7871 59.2734C89.6178 59.2734 87.8496 58.6081 86.4824 57.2773C85.1243 55.9466 84.4453 54.1738 84.4453 51.959V51.5762C84.4453 50.0905 84.7324 48.7643 85.3066 47.5977C85.8809 46.4219 86.6921 45.5195 87.7402 44.8906C88.7975 44.2526 90.0007 43.9336 91.3496 43.9336C93.373 43.9336 94.9635 44.5716 96.1211 45.8477C97.2878 47.1237 97.8711 48.9329 97.8711 51.2754V52.8887H88.4512C88.5788 53.8548 88.9616 54.6296 89.5996 55.2129C90.2467 55.7962 91.0625 56.0879 92.0469 56.0879C93.569 56.0879 94.7585 55.5365 95.6152 54.4336L97.5566 56.6074C96.9642 57.446 96.1621 58.1022 95.1504 58.5762C94.1387 59.041 93.0176 59.2734 91.7871 59.2734ZM91.3359 47.1328C90.5521 47.1328 89.9141 47.3971 89.4219 47.9258C88.9388 48.4544 88.6289 49.2109 88.4922 50.1953H93.9883V49.8809C93.9701 49.0059 93.7331 48.3314 93.2773 47.8574C92.8216 47.3743 92.1745 47.1328 91.3359 47.1328ZM106.279 56.0879C107.008 56.0879 107.601 55.8874 108.057 55.4863C108.512 55.0853 108.749 54.5521 108.768 53.8867H112.473C112.464 54.8893 112.19 55.8099 111.652 56.6484C111.115 57.4779 110.376 58.125 109.438 58.5898C108.508 59.0456 107.478 59.2734 106.348 59.2734C104.233 59.2734 102.565 58.6035 101.344 57.2637C100.122 55.9147 99.5117 54.0553 99.5117 51.6855V51.4258C99.5117 49.1471 100.118 47.3288 101.33 45.9707C102.542 44.6126 104.206 43.9336 106.32 43.9336C108.171 43.9336 109.652 44.4622 110.764 45.5195C111.885 46.5677 112.454 47.9668 112.473 49.7168H108.768C108.749 48.9512 108.512 48.3314 108.057 47.8574C107.601 47.3743 106.999 47.1328 106.252 47.1328C105.331 47.1328 104.634 47.4701 104.16 48.1445C103.695 48.8099 103.463 49.8945 103.463 51.3984V51.8086C103.463 53.3307 103.695 54.4245 104.16 55.0898C104.625 55.7552 105.331 56.0879 106.279 56.0879ZM118.584 45.8203C119.632 44.5625 120.949 43.9336 122.535 43.9336C125.743 43.9336 127.37 45.7975 127.416 49.5254V59H123.465V49.6348C123.465 48.7871 123.283 48.1628 122.918 47.7617C122.553 47.3516 121.947 47.1465 121.1 47.1465C119.942 47.1465 119.104 47.5931 118.584 48.4863V59H114.633V38H118.584V45.8203ZM134.758 51.9863V59H130.656V39.0938H138.422C139.917 39.0938 141.229 39.3672 142.359 39.9141C143.499 40.4609 144.374 41.2402 144.984 42.252C145.595 43.2546 145.9 44.3984 145.9 45.6836C145.9 47.6341 145.23 49.1745 143.891 50.3047C142.56 51.4258 140.714 51.9863 138.354 51.9863H134.758ZM134.758 48.6641H138.422C139.507 48.6641 140.331 48.4089 140.896 47.8984C141.471 47.388 141.758 46.6589 141.758 45.7109C141.758 44.7357 141.471 43.9473 140.896 43.3457C140.322 42.7441 139.529 42.4342 138.518 42.416H134.758V48.6641ZM156.783 47.9121C156.245 47.8392 155.771 47.8027 155.361 47.8027C153.867 47.8027 152.887 48.3086 152.422 49.3203V59H148.471V44.207H152.203L152.312 45.9707C153.105 44.6126 154.204 43.9336 155.607 43.9336C156.045 43.9336 156.455 43.9928 156.838 44.1113L156.783 47.9121ZM165.232 59.2734C163.063 59.2734 161.295 58.6081 159.928 57.2773C158.57 55.9466 157.891 54.1738 157.891 51.959V51.5762C157.891 50.0905 158.178 48.7643 158.752 47.5977C159.326 46.4219 160.137 45.5195 161.186 44.8906C162.243 44.2526 163.446 43.9336 164.795 43.9336C166.818 43.9336 168.409 44.5716 169.566 45.8477C170.733 47.1237 171.316 48.9329 171.316 51.2754V52.8887H161.896C162.024 53.8548 162.407 54.6296 163.045 55.2129C163.692 55.7962 164.508 56.0879 165.492 56.0879C167.014 56.0879 168.204 55.5365 169.061 54.4336L171.002 56.6074C170.41 57.446 169.607 58.1022 168.596 58.5762C167.584 59.041 166.463 59.2734 165.232 59.2734ZM164.781 47.1328C163.997 47.1328 163.359 47.3971 162.867 47.9258C162.384 48.4544 162.074 49.2109 161.938 50.1953H167.434V49.8809C167.415 49.0059 167.178 48.3314 166.723 47.8574C166.267 47.3743 165.62 47.1328 164.781 47.1328ZM177.209 44.207L177.332 45.916C178.389 44.5944 179.807 43.9336 181.584 43.9336C183.152 43.9336 184.318 44.3939 185.084 45.3145C185.85 46.235 186.242 47.6113 186.26 49.4434V59H182.309V49.5391C182.309 48.7005 182.126 48.0944 181.762 47.7207C181.397 47.3379 180.791 47.1465 179.943 47.1465C178.831 47.1465 177.997 47.6204 177.441 48.5684V59H173.49V44.207H177.209ZM196.076 59.2734C193.907 59.2734 192.139 58.6081 190.771 57.2773C189.413 55.9466 188.734 54.1738 188.734 51.959V51.5762C188.734 50.0905 189.021 48.7643 189.596 47.5977C190.17 46.4219 190.981 45.5195 192.029 44.8906C193.087 44.2526 194.29 43.9336 195.639 43.9336C197.662 43.9336 199.253 44.5716 200.41 45.8477C201.577 47.1237 202.16 48.9329 202.16 51.2754V52.8887H192.74C192.868 53.8548 193.251 54.6296 193.889 55.2129C194.536 55.7962 195.352 56.0879 196.336 56.0879C197.858 56.0879 199.048 55.5365 199.904 54.4336L201.846 56.6074C201.253 57.446 200.451 58.1022 199.439 58.5762C198.428 59.041 197.307 59.2734 196.076 59.2734ZM195.625 47.1328C194.841 47.1328 194.203 47.3971 193.711 47.9258C193.228 48.4544 192.918 49.2109 192.781 50.1953H198.277V49.8809C198.259 49.0059 198.022 48.3314 197.566 47.8574C197.111 47.3743 196.464 47.1328 195.625 47.1328ZM213.275 57.4961C212.3 58.681 210.951 59.2734 209.229 59.2734C207.643 59.2734 206.43 58.8177 205.592 57.9062C204.762 56.9948 204.339 55.6595 204.32 53.9004V44.207H208.271V53.7637C208.271 55.304 208.973 56.0742 210.377 56.0742C211.717 56.0742 212.637 55.6094 213.139 54.6797V44.207H217.104V59H213.385L213.275 57.4961ZM228.396 47.9121C227.859 47.8392 227.385 47.8027 226.975 47.8027C225.48 47.8027 224.5 48.3086 224.035 49.3203V59H220.084V44.207H223.816L223.926 45.9707C224.719 44.6126 225.817 43.9336 227.221 43.9336C227.658 43.9336 228.068 43.9928 228.451 44.1113L228.396 47.9121ZM228.137 57.0586C228.137 56.4297 228.346 55.9193 228.766 55.5273C229.194 55.1354 229.727 54.9395 230.365 54.9395C231.012 54.9395 231.546 55.1354 231.965 55.5273C232.393 55.9193 232.607 56.4297 232.607 57.0586C232.607 57.6784 232.398 58.1842 231.979 58.5762C231.559 58.959 231.021 59.1504 230.365 59.1504C229.718 59.1504 229.185 58.959 228.766 58.5762C228.346 58.1842 228.137 57.6784 228.137 57.0586Z" fill="white"/>
</svg>
