<svg width="20" height="20" viewBox="0 0 20 20" fill="none" xmlns="http://www.w3.org/2000/svg">
<path d="M6.11787 19.0841H6.02925C4.24412 19.068 2.4848 18.6413 0.878672 17.835C0.583233 17.6915 0.339975 17.4538 0.184511 17.1569C0.0290472 16.8599 -0.030459 16.5193 0.0147039 16.1848C0.0638221 15.8481 0.21451 15.5361 0.445255 15.2932C0.676 15.0504 0.975005 14.8892 1.29958 14.8326C2.29493 14.6952 3.25247 14.3481 4.11302 13.8127C2.61897 12.6042 1.46878 11 0.784322 9.17021C0.0998673 7.34038 -0.0933459 5.35306 0.225158 3.41886C0.268343 3.11249 0.395697 2.82541 0.592065 2.59177C0.788433 2.35814 1.04555 2.18779 1.33281 2.10101C1.61229 2.0102 1.91139 2.00632 2.19298 2.08985C2.47457 2.17337 2.72624 2.34063 2.91675 2.57085C3.56362 3.44841 4.37652 4.18042 5.30585 4.72223C6.23519 5.26405 7.26147 5.6043 8.32209 5.72224C8.37276 4.37213 8.93356 3.09652 9.88388 2.16976C10.3584 1.69966 10.9186 1.33196 11.5319 1.0881C12.1451 0.844237 12.7991 0.729083 13.4558 0.749348C14.1125 0.769613 14.7588 0.924892 15.3569 1.20614C15.955 1.48738 16.493 1.88897 16.9396 2.38749C17.056 2.49392 17.2005 2.56174 17.3546 2.58217C17.5086 2.6026 17.6651 2.57471 17.8036 2.50209C18.0677 2.37322 18.3618 2.32471 18.6515 2.36222C18.9413 2.39973 19.2147 2.5217 19.44 2.71392C19.6652 2.90613 19.833 3.16066 19.9238 3.4478C20.0145 3.73494 20.0245 4.04286 19.9524 4.33563C19.697 5.42442 19.2129 6.44166 18.5346 7.31512C18.3852 10.5751 16.996 13.6417 14.67 15.8463C12.344 18.051 9.26987 19.2148 6.11787 19.0841ZM6.11787 16.7922H6.20648C7.49431 16.838 8.77813 16.6189 9.98349 16.1476C11.1889 15.6762 12.2918 14.962 13.2284 14.0464C14.1649 13.1307 14.9165 12.0318 15.4395 10.8134C15.9625 9.59496 16.2465 8.28125 16.275 6.94841C16.2933 6.58314 16.4389 6.2371 16.6849 5.97435C16.955 5.62053 17.1854 5.23607 17.3716 4.82839C16.9726 4.82917 16.5779 4.74282 16.2133 4.57497C15.8488 4.40712 15.5225 4.16155 15.256 3.85432C14.9997 3.59139 14.6952 3.384 14.3605 3.24429C14.0258 3.10458 13.6674 3.03536 13.3065 3.04069C12.942 3.03094 12.5792 3.09577 12.239 3.23146C11.8987 3.36716 11.5877 3.57104 11.3238 3.8314C10.9678 4.18092 10.7068 4.62105 10.5668 5.10773C10.4268 5.59442 10.4129 6.1106 10.5263 6.60463L10.8143 7.91102L9.51836 8.0027C8.19039 8.11473 6.85475 7.92679 5.60393 7.4519C4.35312 6.97701 3.21702 6.22652 2.27431 5.25239C2.23388 6.76093 2.59864 8.25151 3.32802 9.55842C4.0574 10.8653 5.12283 11.9373 6.40586 12.6553L7.45813 13.2741L6.7603 14.3055C6.00565 15.3294 4.97165 16.0958 3.7918 16.5057C4.54867 16.702 5.32653 16.7982 6.10679 16.7922H6.11787Z" fill="white" fill-opacity="0.5"/>
</svg>
